<svg width="165" height="165" viewBox="0 0 165 165" fill="none" xmlns="http://www.w3.org/2000/svg">
<g filter="url(#filter0_d_56_3)">
<circle cx="82.5" cy="82.5" r="71.5" fill="white"/>
</g>
<g clip-path="url(#clip0_56_3)">
<path d="M70.5449 50.3629C69.4922 47.82 66.7168 46.4665 64.0645 47.1911L52.0332 50.4723C49.6543 51.1286 48 53.2887 48 55.7497C48 89.5739 75.4258 117 109.25 117C111.711 117 113.871 115.345 114.527 112.966L117.809 100.935C118.533 98.2829 117.18 95.5075 114.637 94.4547L101.512 88.986C99.2832 88.0563 96.6992 88.6989 95.1816 90.5719L89.6582 97.3122C80.0332 92.7594 72.2402 84.9665 67.6875 75.3415L74.4277 69.8317C76.3008 68.3004 76.9434 65.7301 76.0137 63.5016L70.5449 50.3766V50.3629Z" fill="#4CAF50"/>
</g>
<defs>
<filter id="filter0_d_56_3" x="0" y="0" width="165" height="165" filterUnits="userSpaceOnUse" color-interpolation-filters="sRGB">
<feFlood flood-opacity="0" result="BackgroundImageFix"/>
<feColorMatrix in="SourceAlpha" type="matrix" values="0 0 0 0 0 0 0 0 0 0 0 0 0 0 0 0 0 0 127 0" result="hardAlpha"/>
<feOffset/>
<feGaussianBlur stdDeviation="5.5"/>
<feComposite in2="hardAlpha" operator="out"/>
<feColorMatrix type="matrix" values="0 0 0 0 0.298039 0 0 0 0 0.686275 0 0 0 0 0.313726 0 0 0 1 0"/>
<feBlend mode="normal" in2="BackgroundImageFix" result="effect1_dropShadow_56_3"/>
<feBlend mode="normal" in="SourceGraphic" in2="effect1_dropShadow_56_3" result="shape"/>
</filter>
<clipPath id="clip0_56_3">
<rect width="70" height="70" fill="white" transform="translate(48 47)"/>
</clipPath>
</defs>
</svg>
