<svg width="973" height="1134" viewBox="0 0 973 1134" fill="none" xmlns="http://www.w3.org/2000/svg">
<path d="M312.75 319.085V425.363H660.25V319.085C660.25 221.22 582.497 141.954 486.5 141.954C390.503 141.954 312.75 221.22 312.75 319.085ZM173.75 425.363V319.085C173.75 143.061 313.836 0.248779 486.5 0.248779C659.164 0.248779 799.25 143.061 799.25 319.085V425.363H834C910.667 425.363 973 488.909 973 567.068V992.182C973 1070.34 910.667 1133.89 834 1133.89H139C62.3328 1133.89 0 1070.34 0 992.182V567.068C0 488.909 62.3328 425.363 139 425.363H173.75Z" fill="#4CAF50" fill-opacity="0.07"/>
</svg>
