<svg width="86" height="86" viewBox="0 0 86 86" fill="none" xmlns="http://www.w3.org/2000/svg">
<g filter="url(#filter0_d_13_74)">
<circle cx="43" cy="43" r="36" fill="white"/>
</g>
<path d="M58.0154 24.6793C58.2322 24.9033 58.3984 25.1562 58.5141 25.4236C58.6297 25.691 58.6875 25.9873 58.6875 26.3053V26.3125V33.25C58.6875 34.5291 57.6541 35.5625 56.375 35.5625C55.0959 35.5625 54.0625 34.5291 54.0625 33.25V31.8986L46.4457 39.5082C45.593 40.3609 44.2199 40.4188 43.3021 39.6311L36.7188 33.9799L30.1281 39.6311C29.1598 40.4621 27.7 40.3465 26.8689 39.3781C26.0379 38.4098 26.1535 36.95 27.1219 36.1189L35.2156 29.1814C36.0828 28.4371 37.3619 28.4371 38.2291 29.1814L44.6969 34.7242L50.7889 28.625H49.4375C48.1584 28.625 47.125 27.5916 47.125 26.3125C47.125 25.0334 48.1584 24 49.4375 24H56.375C57.0109 24 57.5891 24.2602 58.0082 24.6721L58.0154 24.6793ZM24 45.9688C24 44.0537 25.5537 42.5 27.4688 42.5H57.5312C59.4463 42.5 61 44.0537 61 45.9688V57.5312C61 59.4463 59.4463 61 57.5312 61H27.4688C25.5537 61 24 59.4463 24 57.5312V45.9688ZM27.4688 54.0625V57.5312H30.9375C30.9375 55.6162 29.3838 54.0625 27.4688 54.0625ZM30.9375 45.9688H27.4688V49.4375C29.3838 49.4375 30.9375 47.8838 30.9375 45.9688ZM57.5312 54.0625C55.6162 54.0625 54.0625 55.6162 54.0625 57.5312H57.5312V54.0625ZM54.0625 45.9688C54.0625 47.8838 55.6162 49.4375 57.5312 49.4375V45.9688H54.0625ZM47.125 51.75C47.125 50.5234 46.6377 49.347 45.7704 48.4796C44.903 47.6123 43.7266 47.125 42.5 47.125C41.2734 47.125 40.097 47.6123 39.2296 48.4796C38.3623 49.347 37.875 50.5234 37.875 51.75C37.875 52.9766 38.3623 54.153 39.2296 55.0204C40.097 55.8877 41.2734 56.375 42.5 56.375C43.7266 56.375 44.903 55.8877 45.7704 55.0204C46.6377 54.153 47.125 52.9766 47.125 51.75Z" fill="#4CAF50"/>
<defs>
<filter id="filter0_d_13_74" x="0" y="0" width="86" height="86" filterUnits="userSpaceOnUse" color-interpolation-filters="sRGB">
<feFlood flood-opacity="0" result="BackgroundImageFix"/>
<feColorMatrix in="SourceAlpha" type="matrix" values="0 0 0 0 0 0 0 0 0 0 0 0 0 0 0 0 0 0 127 0" result="hardAlpha"/>
<feOffset/>
<feGaussianBlur stdDeviation="3.5"/>
<feComposite in2="hardAlpha" operator="out"/>
<feColorMatrix type="matrix" values="0 0 0 0 0 0 0 0 0 0 0 0 0 0 0 0 0 0 0.25 0"/>
<feBlend mode="normal" in2="BackgroundImageFix" result="effect1_dropShadow_13_74"/>
<feBlend mode="normal" in="SourceGraphic" in2="effect1_dropShadow_13_74" result="shape"/>
</filter>
</defs>
</svg>
