<svg width="86" height="86" viewBox="0 0 86 86" fill="none" xmlns="http://www.w3.org/2000/svg">
<g filter="url(#filter0_d_54_2)">
<circle cx="43" cy="43" r="36" fill="white"/>
</g>
<g clip-path="url(#clip0_54_2)">
<path d="M36.6071 34.6875V38.25H48.3929V34.6875C48.3929 31.407 45.7558 28.75 42.5 28.75C39.2442 28.75 36.6071 31.407 36.6071 34.6875ZM31.8929 38.25V34.6875C31.8929 28.7871 36.644 24 42.5 24C48.356 24 53.1071 28.7871 53.1071 34.6875V38.25H54.2857C56.8859 38.25 59 40.3801 59 43V57.25C59 59.8699 56.8859 62 54.2857 62H30.7143C28.1141 62 26 59.8699 26 57.25V43C26 40.3801 28.1141 38.25 30.7143 38.25H31.8929Z" fill="#4CAF50"/>
</g>
<defs>
<filter id="filter0_d_54_2" x="0" y="0" width="86" height="86" filterUnits="userSpaceOnUse" color-interpolation-filters="sRGB">
<feFlood flood-opacity="0" result="BackgroundImageFix"/>
<feColorMatrix in="SourceAlpha" type="matrix" values="0 0 0 0 0 0 0 0 0 0 0 0 0 0 0 0 0 0 127 0" result="hardAlpha"/>
<feOffset/>
<feGaussianBlur stdDeviation="3.5"/>
<feComposite in2="hardAlpha" operator="out"/>
<feColorMatrix type="matrix" values="0 0 0 0 0 0 0 0 0 0 0 0 0 0 0 0 0 0 0.25 0"/>
<feBlend mode="normal" in2="BackgroundImageFix" result="effect1_dropShadow_54_2"/>
<feBlend mode="normal" in="SourceGraphic" in2="effect1_dropShadow_54_2" result="shape"/>
</filter>
<clipPath id="clip0_54_2">
<rect width="33" height="38" fill="white" transform="translate(26 24)"/>
</clipPath>
</defs>
</svg>
