<svg width="86" height="86" viewBox="0 0 86 86" fill="none" xmlns="http://www.w3.org/2000/svg">
<g filter="url(#filter0_d_13_109)">
<circle cx="43" cy="43" r="36" fill="white"/>
</g>
<g clip-path="url(#clip0_13_109)">
<path d="M24 27.5938C24 26.7105 24.6873 26 25.5417 26H28.4644C29.8776 26 31.1302 26.85 31.7148 28.125H58.1158C59.8052 28.125 61.0385 29.7852 60.5953 31.4719L57.9616 41.5855C57.4156 43.6707 55.5849 45.125 53.4972 45.125H34.9651L35.312 47.0176C35.4533 47.768 36.0892 48.3125 36.828 48.3125H55.3472C56.2016 48.3125 56.8889 49.023 56.8889 49.9062C56.8889 50.7895 56.2016 51.5 55.3472 51.5H36.828C34.6054 51.5 32.6976 49.8664 32.2865 47.6152L28.9719 29.6191C28.9269 29.3668 28.7149 29.1875 28.4644 29.1875H25.5417C24.6873 29.1875 24 28.477 24 27.5938ZM32.2222 56.8125C32.2222 56.3939 32.302 55.9794 32.4569 55.5927C32.6119 55.206 32.839 54.8546 33.1253 54.5586C33.4116 54.2626 33.7515 54.0278 34.1256 53.8676C34.4997 53.7074 34.9006 53.625 35.3056 53.625C35.7105 53.625 36.1114 53.7074 36.4855 53.8676C36.8596 54.0278 37.1995 54.2626 37.4858 54.5586C37.7721 54.8546 37.9992 55.206 38.1542 55.5927C38.3091 55.9794 38.3889 56.3939 38.3889 56.8125C38.3889 57.2311 38.3091 57.6456 38.1542 58.0323C37.9992 58.419 37.7721 58.7704 37.4858 59.0664C37.1995 59.3624 36.8596 59.5972 36.4855 59.7574C36.1114 59.9176 35.7105 60 35.3056 60C34.9006 60 34.4997 59.9176 34.1256 59.7574C33.7515 59.5972 33.4116 59.3624 33.1253 59.0664C32.839 58.7704 32.6119 58.419 32.4569 58.0323C32.302 57.6456 32.2222 57.2311 32.2222 56.8125ZM53.8056 53.625C54.6233 53.625 55.4076 53.9608 55.9858 54.5586C56.564 55.1564 56.8889 55.9671 56.8889 56.8125C56.8889 57.6579 56.564 58.4686 55.9858 59.0664C55.4076 59.6642 54.6233 60 53.8056 60C52.9878 60 52.2035 59.6642 51.6253 59.0664C51.0471 58.4686 50.7222 57.6579 50.7222 56.8125C50.7222 55.9671 51.0471 55.1564 51.6253 54.5586C52.2035 53.9608 52.9878 53.625 53.8056 53.625Z" fill="#4CAF50"/>
</g>
<defs>
<filter id="filter0_d_13_109" x="0" y="0" width="86" height="86" filterUnits="userSpaceOnUse" color-interpolation-filters="sRGB">
<feFlood flood-opacity="0" result="BackgroundImageFix"/>
<feColorMatrix in="SourceAlpha" type="matrix" values="0 0 0 0 0 0 0 0 0 0 0 0 0 0 0 0 0 0 127 0" result="hardAlpha"/>
<feOffset/>
<feGaussianBlur stdDeviation="3.5"/>
<feComposite in2="hardAlpha" operator="out"/>
<feColorMatrix type="matrix" values="0 0 0 0 0 0 0 0 0 0 0 0 0 0 0 0 0 0 0.25 0"/>
<feBlend mode="normal" in2="BackgroundImageFix" result="effect1_dropShadow_13_109"/>
<feBlend mode="normal" in="SourceGraphic" in2="effect1_dropShadow_13_109" result="shape"/>
</filter>
<clipPath id="clip0_13_109">
<rect width="37" height="34" fill="white" transform="translate(24 26)"/>
</clipPath>
</defs>
</svg>
