<svg width="24" height="28" viewBox="0 0 24 28" fill="none" xmlns="http://www.w3.org/2000/svg">
<path d="M0 5.25C0 4.28203 0.766071 3.5 1.71429 3.5H22.2857C23.2339 3.5 24 4.28203 24 5.25C24 6.21797 23.2339 7 22.2857 7H1.71429C0.766071 7 0 6.21797 0 5.25ZM0 14C0 13.032 0.766071 12.25 1.71429 12.25H22.2857C23.2339 12.25 24 13.032 24 14C24 14.968 23.2339 15.75 22.2857 15.75H1.71429C0.766071 15.75 0 14.968 0 14ZM24 22.75C24 23.718 23.2339 24.5 22.2857 24.5H1.71429C0.766071 24.5 0 23.718 0 22.75C0 21.782 0.766071 21 1.71429 21H22.2857C23.2339 21 24 21.782 24 22.75Z" fill="white"/>
</svg>
