<svg width="35" height="35" viewBox="0 0 35 35" fill="none" xmlns="http://www.w3.org/2000/svg">
<g clip-path="url(#clip0_54_6)">
<path d="M19.6875 2.1875C19.6875 0.977539 18.71 0 17.5 0C16.29 0 15.3125 0.977539 15.3125 2.1875V18.7783L10.2949 13.7607C9.44043 12.9063 8.05273 12.9063 7.19824 13.7607C6.34375 14.6152 6.34375 16.0029 7.19824 16.8574L15.9482 25.6074C16.8027 26.4619 18.1904 26.4619 19.0449 25.6074L27.7949 16.8574C28.6494 16.0029 28.6494 14.6152 27.7949 13.7607C26.9404 12.9063 25.5527 12.9063 24.6982 13.7607L19.6875 18.7783V2.1875ZM4.375 24.0625C1.96191 24.0625 0 26.0244 0 28.4375V30.625C0 33.0381 1.96191 35 4.375 35H30.625C33.0381 35 35 33.0381 35 30.625V28.4375C35 26.0244 33.0381 24.0625 30.625 24.0625H23.6865L20.5898 27.1592C18.8809 28.8682 16.1123 28.8682 14.4033 27.1592L11.3135 24.0625H4.375ZM29.5312 27.8906C29.9664 27.8906 30.3837 28.0635 30.6913 28.3712C30.999 28.6788 31.1719 29.0961 31.1719 29.5312C31.1719 29.9664 30.999 30.3837 30.6913 30.6913C30.3837 30.999 29.9664 31.1719 29.5312 31.1719C29.0961 31.1719 28.6788 30.999 28.3712 30.6913C28.0635 30.3837 27.8906 29.9664 27.8906 29.5312C27.8906 29.0961 28.0635 28.6788 28.3712 28.3712C28.6788 28.0635 29.0961 27.8906 29.5312 27.8906Z" fill="white"/>
</g>
<defs>
<clipPath id="clip0_54_6">
<rect width="35" height="35" fill="white"/>
</clipPath>
</defs>
</svg>
